M48
; DRILL file {KiCad 9.0.5} date 2025-11-07T13:06:25-0500
; FORMAT={-:-/ absolute / metric / decimal}
; #@! TF.CreationDate,2025-11-07T13:06:25-05:00
; #@! TF.GenerationSoftware,Kicad,Pcbnew,9.0.5
; #@! TF.FileFunction,Plated,1,2,PTH
FMAT,2
METRIC
; #@! TA.AperFunction,Plated,PTH,ComponentDrill
T1C0.800
; #@! TA.AperFunction,Plated,PTH,ComponentDrill
T2C1.020
; #@! TA.AperFunction,Plated,PTH,ComponentDrill
T3C1.100
; #@! TA.AperFunction,Plated,PTH,ComponentDrill
T4C2.200
%
G90
G05
T1
X150.92Y-71.0
X153.46Y-71.0
X156.0Y-71.0
T2
X113.22Y-68.4
X113.22Y-70.94
X113.22Y-73.48
X113.22Y-76.02
X113.22Y-78.56
X113.22Y-81.1
X113.22Y-83.64
X113.22Y-86.18
X113.22Y-88.72
X113.22Y-91.26
X113.22Y-93.8
X113.22Y-96.34
X113.22Y-98.88
X113.22Y-101.42
X113.22Y-103.96
X113.22Y-106.5
X113.22Y-109.04
X113.22Y-111.58
X113.22Y-114.12
X113.22Y-116.66
X119.57Y-116.43
X122.11Y-116.43
X124.65Y-116.43
X131.0Y-68.4
X131.0Y-70.94
X131.0Y-73.48
X131.0Y-76.02
X131.0Y-78.56
X131.0Y-81.1
X131.0Y-83.64
X131.0Y-86.18
X131.0Y-88.72
X131.0Y-91.26
X131.0Y-93.8
X131.0Y-96.34
X131.0Y-98.88
X131.0Y-101.42
X131.0Y-103.96
X131.0Y-106.5
X131.0Y-109.04
X131.0Y-111.58
X131.0Y-114.12
X131.0Y-116.66
T3
X68.75Y-92.25
X68.75Y-96.75
X75.25Y-92.25
X75.25Y-96.75
X79.25Y-83.75
X79.25Y-88.25
X79.25Y-100.75
X79.25Y-105.25
X85.75Y-83.75
X85.75Y-88.25
X85.75Y-100.75
X85.75Y-105.25
X89.75Y-92.25
X89.75Y-96.75
X96.25Y-92.25
X96.25Y-96.75
X151.75Y-92.25
X151.75Y-96.75
X158.25Y-92.25
X158.25Y-96.75
X162.25Y-100.75
X162.25Y-105.25
X168.75Y-100.75
X168.75Y-105.25
T4
X70.5Y-74.0
X78.0Y-74.0
X85.5Y-74.0
X92.5Y-74.0
X100.0Y-74.0
X149.5Y-78.0
X158.0Y-78.0
M30
