%TF.GenerationSoftware,KiCad,Pcbnew,9.0.5*%
%TF.CreationDate,2025-11-07T13:00:19-05:00*%
%TF.ProjectId,PCB,5043422e-6b69-4636-9164-5f7063625858,rev?*%
%TF.SameCoordinates,Original*%
%TF.FileFunction,Soldermask,Top*%
%TF.FilePolarity,Negative*%
%FSLAX46Y46*%
G04 Gerber Fmt 4.6, Leading zero omitted, Abs format (unit mm)*
G04 Created by KiCad (PCBNEW 9.0.5) date 2025-11-07 13:00:19*
%MOMM*%
%LPD*%
G01*
G04 APERTURE LIST*
%ADD10C,3.800000*%
%ADD11C,2.000000*%
%ADD12R,1.500000X1.500000*%
%ADD13C,1.600000*%
%ADD14O,1.800000X1.800000*%
%ADD15O,1.500000X1.500000*%
%ADD16O,1.700000X1.700000*%
%ADD17R,3.500000X1.700000*%
%ADD18R,1.700000X1.700000*%
%ADD19R,1.700000X3.500000*%
G04 APERTURE END LIST*
D10*
%TO.C,H1*%
X70500000Y-74000000D03*
%TD*%
D11*
%TO.C,SW1*%
X79250000Y-83750000D03*
X85750000Y-83750000D03*
X79250000Y-88250000D03*
X85750000Y-88250000D03*
%TD*%
%TO.C,SW3*%
X89750000Y-92250000D03*
X96250000Y-92250000D03*
X89750000Y-96750000D03*
X96250000Y-96750000D03*
%TD*%
D12*
%TO.C,SW7*%
X153460000Y-71000000D03*
D13*
X150920000Y-71000000D03*
X156000000Y-71000000D03*
%TD*%
D11*
%TO.C,SW5*%
X151750000Y-92250000D03*
X158250000Y-92250000D03*
X151750000Y-96750000D03*
X158250000Y-96750000D03*
%TD*%
%TO.C,SW2*%
X68750000Y-92250000D03*
X75250000Y-92250000D03*
X68750000Y-96750000D03*
X75250000Y-96750000D03*
%TD*%
D10*
%TO.C,H4*%
X92500000Y-74000000D03*
%TD*%
D11*
%TO.C,SW6*%
X162250000Y-100750000D03*
X168750000Y-100750000D03*
X162250000Y-105250000D03*
X168750000Y-105250000D03*
%TD*%
%TO.C,SW4*%
X79250000Y-100750000D03*
X85750000Y-100750000D03*
X79250000Y-105250000D03*
X85750000Y-105250000D03*
%TD*%
D10*
%TO.C,H6*%
X149500000Y-78000000D03*
%TD*%
D14*
%TO.C,U1*%
X119385000Y-68530000D03*
D15*
X119685000Y-71560000D03*
X124535000Y-71560000D03*
D14*
X124835000Y-68530000D03*
D16*
X113220000Y-68400000D03*
D17*
X112320000Y-68400000D03*
D16*
X113220000Y-70940000D03*
D17*
X112320000Y-70940000D03*
D18*
X113220000Y-73480000D03*
D17*
X112320000Y-73480000D03*
D16*
X113220000Y-76020000D03*
D17*
X112320000Y-76020000D03*
D16*
X113220000Y-78560000D03*
D17*
X112320000Y-78560000D03*
D16*
X113220000Y-81100000D03*
D17*
X112320000Y-81100000D03*
D16*
X113220000Y-83640000D03*
D17*
X112320000Y-83640000D03*
D18*
X113220000Y-86180000D03*
D17*
X112320000Y-86180000D03*
D16*
X113220000Y-88720000D03*
D17*
X112320000Y-88720000D03*
D16*
X113220000Y-91260000D03*
D17*
X112320000Y-91260000D03*
D16*
X113220000Y-93800000D03*
D17*
X112320000Y-93800000D03*
D16*
X113220000Y-96340000D03*
D17*
X112320000Y-96340000D03*
D18*
X113220000Y-98880000D03*
D17*
X112320000Y-98880000D03*
D16*
X113220000Y-101420000D03*
D17*
X112320000Y-101420000D03*
D16*
X113220000Y-103960000D03*
D17*
X112320000Y-103960000D03*
D16*
X113220000Y-106500000D03*
D17*
X112320000Y-106500000D03*
D16*
X113220000Y-109040000D03*
D17*
X112320000Y-109040000D03*
D18*
X113220000Y-111580000D03*
D17*
X112320000Y-111580000D03*
D16*
X113220000Y-114120000D03*
D17*
X112320000Y-114120000D03*
D16*
X113220000Y-116660000D03*
D17*
X112320000Y-116660000D03*
D16*
X131000000Y-116660000D03*
D17*
X131900000Y-116660000D03*
D16*
X131000000Y-114120000D03*
D17*
X131900000Y-114120000D03*
D18*
X131000000Y-111580000D03*
D17*
X131900000Y-111580000D03*
D16*
X131000000Y-109040000D03*
D17*
X131900000Y-109040000D03*
D16*
X131000000Y-106500000D03*
D17*
X131900000Y-106500000D03*
D16*
X131000000Y-103960000D03*
D17*
X131900000Y-103960000D03*
D16*
X131000000Y-101420000D03*
D17*
X131900000Y-101420000D03*
D18*
X131000000Y-98880000D03*
D17*
X131900000Y-98880000D03*
D16*
X131000000Y-96340000D03*
D17*
X131900000Y-96340000D03*
D16*
X131000000Y-93800000D03*
D17*
X131900000Y-93800000D03*
D16*
X131000000Y-91260000D03*
D17*
X131900000Y-91260000D03*
D16*
X131000000Y-88720000D03*
D17*
X131900000Y-88720000D03*
D18*
X131000000Y-86180000D03*
D17*
X131900000Y-86180000D03*
D16*
X131000000Y-83640000D03*
D17*
X131900000Y-83640000D03*
D16*
X131000000Y-81100000D03*
D17*
X131900000Y-81100000D03*
D16*
X131000000Y-78560000D03*
D17*
X131900000Y-78560000D03*
D16*
X131000000Y-76020000D03*
D17*
X131900000Y-76020000D03*
D18*
X131000000Y-73480000D03*
D17*
X131900000Y-73480000D03*
D16*
X131000000Y-70940000D03*
D17*
X131900000Y-70940000D03*
D16*
X131000000Y-68400000D03*
D17*
X131900000Y-68400000D03*
D16*
X119570000Y-116430000D03*
D19*
X119570000Y-117330000D03*
D18*
X122110000Y-116430000D03*
D19*
X122110000Y-117330000D03*
D16*
X124650000Y-116430000D03*
D19*
X124650000Y-117330000D03*
%TD*%
D10*
%TO.C,H2*%
X78000000Y-74000000D03*
%TD*%
%TO.C,H3*%
X85500000Y-74000000D03*
%TD*%
%TO.C,H7*%
X158000000Y-78000000D03*
%TD*%
%TO.C,H5*%
X100000000Y-74000000D03*
%TD*%
M02*
